<?xml version="1.0" encoding="UTF-8" standalone="no"?>
<svg xmlns="http://www.w3.org/2000/svg" width="1200" height="800" viewBox="0 0 1200 800">
  <defs>
    <linearGradient id="blueGradient" x1="0%" y1="0%" x2="100%" y2="100%">
      <stop offset="0%" style="stop-color:#e8f3fb;stop-opacity:1" />
      <stop offset="100%" style="stop-color:#f8fcff;stop-opacity:1" />
    </linearGradient>
  </defs>
  
  <!-- Background gradient -->
  <rect width="100%" height="100%" fill="url(#blueGradient)" />
  
  <!-- Medical pattern elements -->
  <!-- Cross 1 -->
  <g opacity="0.06" fill="#4a9fe6">
    <path d="M150 50c0 16.57-13.43 30-30 30H70v50c0 16.57-13.43 30-30 30s-30-13.43-30-30v-50H10c-16.57 0-30-13.43-30-30s13.43-30 30-30h50V20c0-16.57 13.43-30 30-30s30 13.43 30 30v50h50C136.57 20 150 33.43 150 50z" />
  </g>
  
  <!-- DNA pattern -->
  <g opacity="0.05" fill="#4a9fe6">
    <path d="M350 150c15 0 25 5 25 15s-10 15-25 15c-15 0-25-5-25-15s10-15 25-15zm0 40c15 0 25 5 25 15s-10 15-25 15c-15 0-25-5-25-15s10-15 25-15zm0 40c15 0 25 5 25 15s-10 15-25 15c-15 0-25-5-25-15s10-15 25-15z" />
    <path d="M450 150c15 0 25 5 25 15s-10 15-25 15c-15 0-25-5-25-15s10-15 25-15zm0 40c15 0 25 5 25 15s-10 15-25 15c-15 0-25-5-25-15s10-15 25-15zm0 40c15 0 25 5 25 15s-10 15-25 15c-15 0-25-5-25-15s10-15 25-15z" />
    <path d="M350 150c0 0 25 15 100 15m-100 40c0 0 25 15 100 15m-100 40c0 0 25 15 100 15" stroke="#4a9fe6" stroke-width="5" opacity="0.05" fill="none" />
  </g>
  
  <!-- Heartbeat line -->
  <path d="M550 300 L600 300 L625 250 L650 350 L675 250 L700 300 L750 300" stroke="#4a9fe6" stroke-width="5" fill="none" opacity="0.07" />
  
  <!-- Medical circles -->
  <circle cx="900" cy="200" r="50" fill="#4a9fe6" opacity="0.04" />
  <circle cx="950" cy="250" r="30" fill="#4a9fe6" opacity="0.05" />
  <circle cx="880" cy="240" r="20" fill="#4a9fe6" opacity="0.06" />
  
  <!-- Cross 2 -->
  <g opacity="0.05" fill="#4a9fe6">
    <path d="M1100 600c0 16.57-13.43 30-30 30h-50v50c0 16.57-13.43 30-30 30s-30-13.43-30-30v-50h-50c-16.57 0-30-13.43-30-30s13.43-30 30-30h50v-50c0-16.57 13.43-30 30-30s30 13.43 30 30v50h50c16.57 0 30 13.43 30 30z" />
  </g>
  
  <!-- Molecule structure -->
  <g opacity="0.07" fill="#4a9fe6">
    <circle cx="200" cy="500" r="20" />
    <circle cx="250" cy="550" r="15" />
    <circle cx="300" cy="500" r="20" />
    <circle cx="250" cy="450" r="15" />
    <line x1="200" y1="500" x2="250" y2="550" stroke="#4a9fe6" stroke-width="5" />
    <line x1="250" y1="550" x2="300" y2="500" stroke="#4a9fe6" stroke-width="5" />
    <line x1="300" y1="500" x2="250" y2="450" stroke="#4a9fe6" stroke-width="5" />
    <line x1="250" y1="450" x2="200" y2="500" stroke="#4a9fe6" stroke-width="5" />
  </g>
  
  <!-- Microscope pattern -->
  <path d="M750 650c0 0 -20 -40 20 -60s50 20 40 50c-10 30 -40 20 -60 10z" fill="#4a9fe6" opacity="0.05" />
  
  <!-- Medical flask -->
  <path d="M450 650c0 0 -20 -60 0 -80s40 0 40 0s20 20 0 80z" fill="#4a9fe6" opacity="0.06" />
  <ellipse cx="450" cy="650" rx="40" ry="20" fill="#4a9fe6" opacity="0.06" />
  
  <!-- Stethoscope -->
  <path d="M850 400c0 0 20 50 60 50c40 0 40 -40 0 -40c-40 0 -60 50 -60 50" stroke="#4a9fe6" stroke-width="8" fill="none" opacity="0.05" stroke-linecap="round" />
  <circle cx="910" cy="410" r="12" fill="#4a9fe6" opacity="0.05" />
</svg>